<svg xmlns="http://www.w3.org/2000/svg" viewBox="0 0 510.08 510.08"><defs><style>.cls-1{fill:#f6bc16;}.cls-2{fill:#fff;}</style></defs><title>GRAIN_MONOGRAM_YELLOWBG</title><g id="Layer_1" data-name="Layer 1"><circle class="cls-1" cx="256.66" cy="256.41" r="235.39"/><path class="cls-2" d="M258.07,71.11c-46.64,49.49-17.5,75.93-4.93,84.12v282H263V154.71C311.54,119.38,258.07,71.11,258.07,71.11Z" transform="translate(-1.92 -1.92)"/><path class="cls-2" d="M217.57,251.38s27.41,12.56,31.26,0c3.63-11.83,2.71-19.13-23.12-34.4s-29.55-25-35.54-32.11C190.17,184.87,182.89,232.82,217.57,251.38Z" transform="translate(-1.92 -1.92)"/><path class="cls-2" d="M217.57,310.89s27.41,12.56,31.26,0c3.63-11.82,2.71-19.12-23.12-34.39s-29.55-25-35.54-32.12C190.17,244.38,182.89,292.34,217.57,310.89Z" transform="translate(-1.92 -1.92)"/><path class="cls-2" d="M217.57,367.41s27.41,12.56,31.26,0c3.63-11.82,2.71-19.12-23.12-34.39s-29.55-25-35.54-32.12C190.17,300.9,182.89,348.86,217.57,367.41Z" transform="translate(-1.92 -1.92)"/><path class="cls-2" d="M298.83,251.38s-27.4,12.56-31.25,0c-3.63-11.83-2.72-19.13,23.12-34.4s29.54-25,35.54-32.11C326.24,184.87,333.52,232.82,298.83,251.38Z" transform="translate(-1.92 -1.92)"/><path class="cls-2" d="M298.83,310.89s-27.4,12.56-31.25,0c-3.63-11.82-2.72-19.12,23.12-34.39s29.54-25,35.54-32.12C326.24,244.38,333.52,292.34,298.83,310.89Z" transform="translate(-1.92 -1.92)"/><path class="cls-2" d="M298.83,367.41s-27.4,12.56-31.25,0C264,355.59,264.86,348.29,290.7,333s29.54-25,35.54-32.12C326.24,300.9,333.52,348.86,298.83,367.41Z" transform="translate(-1.92 -1.92)"/><path class="cls-2" d="M174.84,353.55c-22.63-21.43-36.38-49.3-40.89-82.86-2.94-22,.53-56.8,33.82-98.08a245.9,245.9,0,0,1,28.61-29.76,47.37,47.37,0,0,0,5.21,26.89s8.21,20.71,25.47,27.19c14.38,5.39,32.47.8,19.66-22.43-3.3-6-9.42-13.39-20.06-22.41a51,51,0,0,1-14.28-19.45c-2.58-6.29-4.22-13.94-2.51-22,0,0-.24.27-.65.79a164.44,164.44,0,0,1-20.89,22.29,259.83,259.83,0,0,0-29.81,31c-28.63,35.41-41.28,72.6-36.59,107.56,4.88,36.37,19.87,66.66,44.57,90,23.15,21.93,54.43,36.7,90.46,42.73l2-12C225.32,387.49,196.23,373.8,174.84,353.55Z" transform="translate(-1.92 -1.92)"/><path class="cls-2" d="M357.4,164.75a257.73,257.73,0,0,0-28.87-30.18,159.61,159.61,0,0,1-21-22.65c-.63-.83-1-1.27-1-1.27,1.7,8,.07,15.69-2.52,22a50.85,50.85,0,0,1-14.27,19.46c-10.65,9-16.77,16.43-20.07,22.41-12.81,23.23,5.29,27.82,19.66,22.43,17.26-6.48,25.48-27.19,25.48-27.19a47.34,47.34,0,0,0,5.25-26.42,245.43,245.43,0,0,1,28.08,29.29c33.29,41.28,36.77,76.12,33.82,98.08-4.5,33.56-18.26,61.43-40.89,82.86C319.69,373.8,290.6,387.49,257,393.12l2,12c36-6,67.31-20.8,90.47-42.73,24.69-23.38,39.68-53.67,44.56-90C398.68,237.35,386,200.16,357.4,164.75Z" transform="translate(-1.92 -1.92)"/><path class="cls-2" d="M257,512A255.1,255.1,0,0,1,157.68,22,255.1,255.1,0,0,1,356.24,492,253.57,253.57,0,0,1,257,512Zm0-476.72A221.68,221.68,0,0,0,100.21,413.71a221.68,221.68,0,1,0,313.5-313.5A220.23,220.23,0,0,0,257,35.28Z" transform="translate(-1.92 -1.92)"/></g></svg>